M48
; DRILL file {KiCad (5.1.0)-1} date 06/05/2019 19:17:57
; FORMAT={-:-/ absolute / metric / decimal}
; #@! TF.CreationDate,2019-05-06T19:17:57+02:00
; #@! TF.GenerationSoftware,Kicad,Pcbnew,(5.1.0)-1
; #@! TF.FileFunction,Plated,1,2,PTH
FMAT,2
METRIC
T1C0.400
T2C0.762
T3C1.000
T4C3.000
%
G90
G05
T1
X91.123Y-80.835
X92.583Y-69.659
X96.329Y-72.136
X97.79Y-83.82
X101.727Y-101.282
X112.331Y-135.255
X114.173Y-129.731
T2
X165.711Y-67.36
X165.711Y-69.9
X165.711Y-72.44
X165.711Y-74.98
X165.711Y-77.52
X165.711Y-80.06
X165.711Y-82.6
X165.711Y-85.14
X165.711Y-87.68
X165.711Y-90.22
X165.711Y-92.76
X165.711Y-95.3
X186.031Y-67.36
X186.031Y-69.9
X186.031Y-72.44
X186.031Y-74.98
X186.031Y-77.52
X186.031Y-80.06
X186.031Y-82.6
X186.031Y-85.14
X186.031Y-87.68
X186.031Y-90.22
X186.031Y-92.76
X186.031Y-95.3
X186.031Y-97.84
X186.031Y-100.38
X186.031Y-102.92
X186.031Y-105.46
T3
X79.291Y-69.5
X79.291Y-72.04
X79.291Y-74.58
X79.291Y-77.12
X79.291Y-79.66
X79.291Y-82.2
X79.291Y-84.74
X79.291Y-87.28
X79.291Y-89.82
X79.291Y-92.36
X79.291Y-94.9
X79.291Y-97.44
X79.291Y-99.98
X79.291Y-102.52
X160.571Y-82.2
X160.571Y-84.74
X160.571Y-87.28
X160.571Y-89.82
X91.516Y-95.123
X91.516Y-97.663
T4
X84.211Y-64.01
X84.211Y-108.01
X160.291Y-64.01
X160.291Y-108.01
T0
M30
