G04 #@! TF.GenerationSoftware,KiCad,Pcbnew,(5.1.0)-1*
G04 #@! TF.CreationDate,2019-05-06T19:17:54+02:00*
G04 #@! TF.ProjectId,NesEMU,4e657345-4d55-42e6-9b69-6361645f7063,rev?*
G04 #@! TF.SameCoordinates,Original*
G04 #@! TF.FileFunction,Soldermask,Top*
G04 #@! TF.FilePolarity,Negative*
%FSLAX46Y46*%
G04 Gerber Fmt 4.6, Leading zero omitted, Abs format (unit mm)*
G04 Created by KiCad (PCBNEW (5.1.0)-1) date 2019-05-06 19:17:54*
%MOMM*%
%LPD*%
G04 APERTURE LIST*
%ADD10C,0.100000*%
G04 APERTURE END LIST*
D10*
G36*
X101321000Y-137571000D02*
G01*
X99669000Y-137571000D01*
X99669000Y-136169000D01*
X101321000Y-136169000D01*
X101321000Y-137571000D01*
X101321000Y-137571000D01*
G37*
G36*
X93371000Y-137571000D02*
G01*
X91719000Y-137571000D01*
X91719000Y-136169000D01*
X93371000Y-136169000D01*
X93371000Y-137571000D01*
X93371000Y-137571000D01*
G37*
G36*
X180061000Y-135031000D02*
G01*
X178409000Y-135031000D01*
X178409000Y-133629000D01*
X180061000Y-133629000D01*
X180061000Y-135031000D01*
X180061000Y-135031000D01*
G37*
G36*
X158141000Y-135031000D02*
G01*
X156489000Y-135031000D01*
X156489000Y-133629000D01*
X158141000Y-133629000D01*
X158141000Y-135031000D01*
X158141000Y-135031000D01*
G37*
G36*
X166091000Y-135031000D02*
G01*
X164439000Y-135031000D01*
X164439000Y-133629000D01*
X166091000Y-133629000D01*
X166091000Y-135031000D01*
X166091000Y-135031000D01*
G37*
G36*
X172111000Y-135031000D02*
G01*
X170459000Y-135031000D01*
X170459000Y-133629000D01*
X172111000Y-133629000D01*
X172111000Y-135031000D01*
X172111000Y-135031000D01*
G37*
G36*
X93371000Y-133071000D02*
G01*
X91719000Y-133071000D01*
X91719000Y-131669000D01*
X93371000Y-131669000D01*
X93371000Y-133071000D01*
X93371000Y-133071000D01*
G37*
G36*
X101321000Y-133071000D02*
G01*
X99669000Y-133071000D01*
X99669000Y-131669000D01*
X101321000Y-131669000D01*
X101321000Y-133071000D01*
X101321000Y-133071000D01*
G37*
G36*
X140691000Y-132491000D02*
G01*
X139039000Y-132491000D01*
X139039000Y-131089000D01*
X140691000Y-131089000D01*
X140691000Y-132491000D01*
X140691000Y-132491000D01*
G37*
G36*
X132741000Y-132491000D02*
G01*
X131089000Y-132491000D01*
X131089000Y-131089000D01*
X132741000Y-131089000D01*
X132741000Y-132491000D01*
X132741000Y-132491000D01*
G37*
G36*
X166091000Y-130531000D02*
G01*
X164439000Y-130531000D01*
X164439000Y-129129000D01*
X166091000Y-129129000D01*
X166091000Y-130531000D01*
X166091000Y-130531000D01*
G37*
G36*
X180061000Y-130531000D02*
G01*
X178409000Y-130531000D01*
X178409000Y-129129000D01*
X180061000Y-129129000D01*
X180061000Y-130531000D01*
X180061000Y-130531000D01*
G37*
G36*
X172111000Y-130531000D02*
G01*
X170459000Y-130531000D01*
X170459000Y-129129000D01*
X172111000Y-129129000D01*
X172111000Y-130531000D01*
X172111000Y-130531000D01*
G37*
G36*
X158141000Y-130531000D02*
G01*
X156489000Y-130531000D01*
X156489000Y-129129000D01*
X158141000Y-129129000D01*
X158141000Y-130531000D01*
X158141000Y-130531000D01*
G37*
G36*
X91161000Y-128681000D02*
G01*
X89509000Y-128681000D01*
X89509000Y-127279000D01*
X91161000Y-127279000D01*
X91161000Y-128681000D01*
X91161000Y-128681000D01*
G37*
G36*
X103531000Y-128681000D02*
G01*
X101879000Y-128681000D01*
X101879000Y-127279000D01*
X103531000Y-127279000D01*
X103531000Y-128681000D01*
X103531000Y-128681000D01*
G37*
G36*
X111481000Y-128681000D02*
G01*
X109829000Y-128681000D01*
X109829000Y-127279000D01*
X111481000Y-127279000D01*
X111481000Y-128681000D01*
X111481000Y-128681000D01*
G37*
G36*
X83211000Y-128681000D02*
G01*
X81559000Y-128681000D01*
X81559000Y-127279000D01*
X83211000Y-127279000D01*
X83211000Y-128681000D01*
X83211000Y-128681000D01*
G37*
G36*
X140691000Y-127991000D02*
G01*
X139039000Y-127991000D01*
X139039000Y-126589000D01*
X140691000Y-126589000D01*
X140691000Y-127991000D01*
X140691000Y-127991000D01*
G37*
G36*
X132741000Y-127991000D02*
G01*
X131089000Y-127991000D01*
X131089000Y-126589000D01*
X132741000Y-126589000D01*
X132741000Y-127991000D01*
X132741000Y-127991000D01*
G37*
G36*
X83211000Y-124181000D02*
G01*
X81559000Y-124181000D01*
X81559000Y-122779000D01*
X83211000Y-122779000D01*
X83211000Y-124181000D01*
X83211000Y-124181000D01*
G37*
G36*
X103531000Y-124181000D02*
G01*
X101879000Y-124181000D01*
X101879000Y-122779000D01*
X103531000Y-122779000D01*
X103531000Y-124181000D01*
X103531000Y-124181000D01*
G37*
G36*
X111481000Y-124181000D02*
G01*
X109829000Y-124181000D01*
X109829000Y-122779000D01*
X111481000Y-122779000D01*
X111481000Y-124181000D01*
X111481000Y-124181000D01*
G37*
G36*
X91161000Y-124181000D02*
G01*
X89509000Y-124181000D01*
X89509000Y-122779000D01*
X91161000Y-122779000D01*
X91161000Y-124181000D01*
X91161000Y-124181000D01*
G37*
G36*
X172111000Y-123601000D02*
G01*
X170459000Y-123601000D01*
X170459000Y-122199000D01*
X172111000Y-122199000D01*
X172111000Y-123601000D01*
X172111000Y-123601000D01*
G37*
G36*
X180061000Y-123601000D02*
G01*
X178409000Y-123601000D01*
X178409000Y-122199000D01*
X180061000Y-122199000D01*
X180061000Y-123601000D01*
X180061000Y-123601000D01*
G37*
G36*
X139091000Y-121061000D02*
G01*
X137439000Y-121061000D01*
X137439000Y-119659000D01*
X139091000Y-119659000D01*
X139091000Y-121061000D01*
X139091000Y-121061000D01*
G37*
G36*
X134341000Y-121061000D02*
G01*
X132689000Y-121061000D01*
X132689000Y-119659000D01*
X134341000Y-119659000D01*
X134341000Y-121061000D01*
X134341000Y-121061000D01*
G37*
G36*
X126391000Y-121061000D02*
G01*
X124739000Y-121061000D01*
X124739000Y-119659000D01*
X126391000Y-119659000D01*
X126391000Y-121061000D01*
X126391000Y-121061000D01*
G37*
G36*
X147041000Y-121061000D02*
G01*
X145389000Y-121061000D01*
X145389000Y-119659000D01*
X147041000Y-119659000D01*
X147041000Y-121061000D01*
X147041000Y-121061000D01*
G37*
G36*
X101321000Y-119791000D02*
G01*
X99669000Y-119791000D01*
X99669000Y-118389000D01*
X101321000Y-118389000D01*
X101321000Y-119791000D01*
X101321000Y-119791000D01*
G37*
G36*
X93371000Y-119791000D02*
G01*
X91719000Y-119791000D01*
X91719000Y-118389000D01*
X93371000Y-118389000D01*
X93371000Y-119791000D01*
X93371000Y-119791000D01*
G37*
G36*
X172111000Y-119101000D02*
G01*
X170459000Y-119101000D01*
X170459000Y-117699000D01*
X172111000Y-117699000D01*
X172111000Y-119101000D01*
X172111000Y-119101000D01*
G37*
G36*
X180061000Y-119101000D02*
G01*
X178409000Y-119101000D01*
X178409000Y-117699000D01*
X180061000Y-117699000D01*
X180061000Y-119101000D01*
X180061000Y-119101000D01*
G37*
G36*
X139091000Y-116561000D02*
G01*
X137439000Y-116561000D01*
X137439000Y-115159000D01*
X139091000Y-115159000D01*
X139091000Y-116561000D01*
X139091000Y-116561000D01*
G37*
G36*
X147041000Y-116561000D02*
G01*
X145389000Y-116561000D01*
X145389000Y-115159000D01*
X147041000Y-115159000D01*
X147041000Y-116561000D01*
X147041000Y-116561000D01*
G37*
G36*
X134341000Y-116561000D02*
G01*
X132689000Y-116561000D01*
X132689000Y-115159000D01*
X134341000Y-115159000D01*
X134341000Y-116561000D01*
X134341000Y-116561000D01*
G37*
G36*
X126391000Y-116561000D02*
G01*
X124739000Y-116561000D01*
X124739000Y-115159000D01*
X126391000Y-115159000D01*
X126391000Y-116561000D01*
X126391000Y-116561000D01*
G37*
G36*
X93371000Y-115291000D02*
G01*
X91719000Y-115291000D01*
X91719000Y-113889000D01*
X93371000Y-113889000D01*
X93371000Y-115291000D01*
X93371000Y-115291000D01*
G37*
G36*
X101321000Y-115291000D02*
G01*
X99669000Y-115291000D01*
X99669000Y-113889000D01*
X101321000Y-113889000D01*
X101321000Y-115291000D01*
X101321000Y-115291000D01*
G37*
G36*
X84955099Y-105556634D02*
G01*
X85293355Y-105696744D01*
X85419353Y-105748934D01*
X85837169Y-106028110D01*
X86192492Y-106383433D01*
X86471668Y-106801249D01*
X86471669Y-106801251D01*
X86663968Y-107265503D01*
X86762001Y-107758348D01*
X86762001Y-108260854D01*
X86663968Y-108753699D01*
X86471669Y-109217951D01*
X86471668Y-109217953D01*
X86192492Y-109635769D01*
X85837169Y-109991092D01*
X85419353Y-110270268D01*
X85419352Y-110270269D01*
X85419351Y-110270269D01*
X84955099Y-110462568D01*
X84462254Y-110560601D01*
X83959748Y-110560601D01*
X83466903Y-110462568D01*
X83002651Y-110270269D01*
X83002650Y-110270269D01*
X83002649Y-110270268D01*
X82584833Y-109991092D01*
X82229510Y-109635769D01*
X81950334Y-109217953D01*
X81950333Y-109217951D01*
X81758034Y-108753699D01*
X81660001Y-108260854D01*
X81660001Y-107758348D01*
X81758034Y-107265503D01*
X81950333Y-106801251D01*
X81950334Y-106801249D01*
X82229510Y-106383433D01*
X82584833Y-106028110D01*
X83002649Y-105748934D01*
X83128647Y-105696744D01*
X83466903Y-105556634D01*
X83959748Y-105458601D01*
X84462254Y-105458601D01*
X84955099Y-105556634D01*
X84955099Y-105556634D01*
G37*
G36*
X161035099Y-105556634D02*
G01*
X161373355Y-105696744D01*
X161499353Y-105748934D01*
X161917169Y-106028110D01*
X162272492Y-106383433D01*
X162551668Y-106801249D01*
X162551669Y-106801251D01*
X162743968Y-107265503D01*
X162842001Y-107758348D01*
X162842001Y-108260854D01*
X162743968Y-108753699D01*
X162551669Y-109217951D01*
X162551668Y-109217953D01*
X162272492Y-109635769D01*
X161917169Y-109991092D01*
X161499353Y-110270268D01*
X161499352Y-110270269D01*
X161499351Y-110270269D01*
X161035099Y-110462568D01*
X160542254Y-110560601D01*
X160039748Y-110560601D01*
X159546903Y-110462568D01*
X159082651Y-110270269D01*
X159082650Y-110270269D01*
X159082649Y-110270268D01*
X158664833Y-109991092D01*
X158309510Y-109635769D01*
X158030334Y-109217953D01*
X158030333Y-109217951D01*
X157838034Y-108753699D01*
X157740001Y-108260854D01*
X157740001Y-107758348D01*
X157838034Y-107265503D01*
X158030333Y-106801251D01*
X158030334Y-106801249D01*
X158309510Y-106383433D01*
X158664833Y-106028110D01*
X159082649Y-105748934D01*
X159208647Y-105696744D01*
X159546903Y-105556634D01*
X160039748Y-105458601D01*
X160542254Y-105458601D01*
X161035099Y-105556634D01*
X161035099Y-105556634D01*
G37*
G36*
X186268143Y-104677843D02*
G01*
X186416102Y-104739130D01*
X186549256Y-104828100D01*
X186662502Y-104941346D01*
X186751472Y-105074500D01*
X186812759Y-105222459D01*
X186844001Y-105379526D01*
X186844001Y-105539676D01*
X186812759Y-105696743D01*
X186751472Y-105844702D01*
X186662502Y-105977856D01*
X186549256Y-106091102D01*
X186416102Y-106180072D01*
X186268143Y-106241359D01*
X186111076Y-106272601D01*
X185950926Y-106272601D01*
X185793859Y-106241359D01*
X185645900Y-106180072D01*
X185512746Y-106091102D01*
X185399500Y-105977856D01*
X185310530Y-105844702D01*
X185249243Y-105696743D01*
X185218001Y-105539676D01*
X185218001Y-105379526D01*
X185249243Y-105222459D01*
X185310530Y-105074500D01*
X185399500Y-104941346D01*
X185512746Y-104828100D01*
X185645900Y-104739130D01*
X185793859Y-104677843D01*
X185950926Y-104646601D01*
X186111076Y-104646601D01*
X186268143Y-104677843D01*
X186268143Y-104677843D01*
G37*
G36*
X186268143Y-102137843D02*
G01*
X186416102Y-102199130D01*
X186549256Y-102288100D01*
X186662502Y-102401346D01*
X186751472Y-102534500D01*
X186812759Y-102682459D01*
X186844001Y-102839526D01*
X186844001Y-102999676D01*
X186812759Y-103156743D01*
X186751472Y-103304702D01*
X186662502Y-103437856D01*
X186549256Y-103551102D01*
X186416102Y-103640072D01*
X186268143Y-103701359D01*
X186111076Y-103732601D01*
X185950926Y-103732601D01*
X185793859Y-103701359D01*
X185645900Y-103640072D01*
X185512746Y-103551102D01*
X185399500Y-103437856D01*
X185310530Y-103304702D01*
X185249243Y-103156743D01*
X185218001Y-102999676D01*
X185218001Y-102839526D01*
X185249243Y-102682459D01*
X185310530Y-102534500D01*
X185399500Y-102401346D01*
X185512746Y-102288100D01*
X185645900Y-102199130D01*
X185793859Y-102137843D01*
X185950926Y-102106601D01*
X186111076Y-102106601D01*
X186268143Y-102137843D01*
X186268143Y-102137843D01*
G37*
G36*
X79404513Y-101623528D02*
G01*
X79553813Y-101653225D01*
X79717785Y-101721145D01*
X79865355Y-101819748D01*
X79990854Y-101945247D01*
X80089457Y-102092817D01*
X80157377Y-102256789D01*
X80192001Y-102430860D01*
X80192001Y-102608342D01*
X80157377Y-102782413D01*
X80089457Y-102946385D01*
X79990854Y-103093955D01*
X79865355Y-103219454D01*
X79717785Y-103318057D01*
X79553813Y-103385977D01*
X79404513Y-103415674D01*
X79379743Y-103420601D01*
X79202259Y-103420601D01*
X79177489Y-103415674D01*
X79028189Y-103385977D01*
X78864217Y-103318057D01*
X78716647Y-103219454D01*
X78591148Y-103093955D01*
X78492545Y-102946385D01*
X78424625Y-102782413D01*
X78390001Y-102608342D01*
X78390001Y-102430860D01*
X78424625Y-102256789D01*
X78492545Y-102092817D01*
X78591148Y-101945247D01*
X78716647Y-101819748D01*
X78864217Y-101721145D01*
X79028189Y-101653225D01*
X79177489Y-101623528D01*
X79202259Y-101618601D01*
X79379743Y-101618601D01*
X79404513Y-101623528D01*
X79404513Y-101623528D01*
G37*
G36*
X186268143Y-99597843D02*
G01*
X186416102Y-99659130D01*
X186549256Y-99748100D01*
X186662502Y-99861346D01*
X186751472Y-99994500D01*
X186812759Y-100142459D01*
X186844001Y-100299526D01*
X186844001Y-100459676D01*
X186812759Y-100616743D01*
X186751472Y-100764702D01*
X186662502Y-100897856D01*
X186549256Y-101011102D01*
X186416102Y-101100072D01*
X186268143Y-101161359D01*
X186111076Y-101192601D01*
X185950926Y-101192601D01*
X185793859Y-101161359D01*
X185645900Y-101100072D01*
X185512746Y-101011102D01*
X185399500Y-100897856D01*
X185310530Y-100764702D01*
X185249243Y-100616743D01*
X185218001Y-100459676D01*
X185218001Y-100299526D01*
X185249243Y-100142459D01*
X185310530Y-99994500D01*
X185399500Y-99861346D01*
X185512746Y-99748100D01*
X185645900Y-99659130D01*
X185793859Y-99597843D01*
X185950926Y-99566601D01*
X186111076Y-99566601D01*
X186268143Y-99597843D01*
X186268143Y-99597843D01*
G37*
G36*
X79404513Y-99083528D02*
G01*
X79553813Y-99113225D01*
X79717785Y-99181145D01*
X79865355Y-99279748D01*
X79990854Y-99405247D01*
X80089457Y-99552817D01*
X80157377Y-99716789D01*
X80192001Y-99890860D01*
X80192001Y-100068342D01*
X80157377Y-100242413D01*
X80089457Y-100406385D01*
X79990854Y-100553955D01*
X79865355Y-100679454D01*
X79717785Y-100778057D01*
X79553813Y-100845977D01*
X79404513Y-100875674D01*
X79379743Y-100880601D01*
X79202259Y-100880601D01*
X79177489Y-100875674D01*
X79028189Y-100845977D01*
X78864217Y-100778057D01*
X78716647Y-100679454D01*
X78591148Y-100553955D01*
X78492545Y-100406385D01*
X78424625Y-100242413D01*
X78390001Y-100068342D01*
X78390001Y-99890860D01*
X78424625Y-99716789D01*
X78492545Y-99552817D01*
X78591148Y-99405247D01*
X78716647Y-99279748D01*
X78864217Y-99181145D01*
X79028189Y-99113225D01*
X79177489Y-99083528D01*
X79202259Y-99078601D01*
X79379743Y-99078601D01*
X79404513Y-99083528D01*
X79404513Y-99083528D01*
G37*
G36*
X186268143Y-97057843D02*
G01*
X186416102Y-97119130D01*
X186549256Y-97208100D01*
X186662502Y-97321346D01*
X186751472Y-97454500D01*
X186812759Y-97602459D01*
X186844001Y-97759526D01*
X186844001Y-97919676D01*
X186812759Y-98076743D01*
X186751472Y-98224702D01*
X186662502Y-98357856D01*
X186549256Y-98471102D01*
X186416102Y-98560072D01*
X186268143Y-98621359D01*
X186111076Y-98652601D01*
X185950926Y-98652601D01*
X185793859Y-98621359D01*
X185645900Y-98560072D01*
X185512746Y-98471102D01*
X185399500Y-98357856D01*
X185310530Y-98224702D01*
X185249243Y-98076743D01*
X185218001Y-97919676D01*
X185218001Y-97759526D01*
X185249243Y-97602459D01*
X185310530Y-97454500D01*
X185399500Y-97321346D01*
X185512746Y-97208100D01*
X185645900Y-97119130D01*
X185793859Y-97057843D01*
X185950926Y-97026601D01*
X186111076Y-97026601D01*
X186268143Y-97057843D01*
X186268143Y-97057843D01*
G37*
G36*
X91626642Y-96768518D02*
G01*
X91692827Y-96775037D01*
X91862666Y-96826557D01*
X92019191Y-96910222D01*
X92054929Y-96939552D01*
X92156386Y-97022814D01*
X92235429Y-97119130D01*
X92268978Y-97160009D01*
X92352643Y-97316534D01*
X92404163Y-97486373D01*
X92421559Y-97663000D01*
X92404163Y-97839627D01*
X92352643Y-98009466D01*
X92268978Y-98165991D01*
X92239648Y-98201729D01*
X92156386Y-98303186D01*
X92054929Y-98386448D01*
X92019191Y-98415778D01*
X91862666Y-98499443D01*
X91692827Y-98550963D01*
X91626642Y-98557482D01*
X91560460Y-98564000D01*
X91471940Y-98564000D01*
X91405758Y-98557482D01*
X91339573Y-98550963D01*
X91169734Y-98499443D01*
X91013209Y-98415778D01*
X90977471Y-98386448D01*
X90876014Y-98303186D01*
X90792752Y-98201729D01*
X90763422Y-98165991D01*
X90679757Y-98009466D01*
X90628237Y-97839627D01*
X90610841Y-97663000D01*
X90628237Y-97486373D01*
X90679757Y-97316534D01*
X90763422Y-97160009D01*
X90796971Y-97119130D01*
X90876014Y-97022814D01*
X90977471Y-96939552D01*
X91013209Y-96910222D01*
X91169734Y-96826557D01*
X91339573Y-96775037D01*
X91405758Y-96768518D01*
X91471940Y-96762000D01*
X91560460Y-96762000D01*
X91626642Y-96768518D01*
X91626642Y-96768518D01*
G37*
G36*
X79404513Y-96543528D02*
G01*
X79553813Y-96573225D01*
X79717785Y-96641145D01*
X79865355Y-96739748D01*
X79990854Y-96865247D01*
X80089457Y-97012817D01*
X80157377Y-97176789D01*
X80192001Y-97350860D01*
X80192001Y-97528342D01*
X80157377Y-97702413D01*
X80089457Y-97866385D01*
X79990854Y-98013955D01*
X79865355Y-98139454D01*
X79717785Y-98238057D01*
X79553813Y-98305977D01*
X79404513Y-98335674D01*
X79379743Y-98340601D01*
X79202259Y-98340601D01*
X79177489Y-98335674D01*
X79028189Y-98305977D01*
X78864217Y-98238057D01*
X78716647Y-98139454D01*
X78591148Y-98013955D01*
X78492545Y-97866385D01*
X78424625Y-97702413D01*
X78390001Y-97528342D01*
X78390001Y-97350860D01*
X78424625Y-97176789D01*
X78492545Y-97012817D01*
X78591148Y-96865247D01*
X78716647Y-96739748D01*
X78864217Y-96641145D01*
X79028189Y-96573225D01*
X79177489Y-96543528D01*
X79202259Y-96538601D01*
X79379743Y-96538601D01*
X79404513Y-96543528D01*
X79404513Y-96543528D01*
G37*
G36*
X186268143Y-94517843D02*
G01*
X186416102Y-94579130D01*
X186549256Y-94668100D01*
X186662502Y-94781346D01*
X186751472Y-94914500D01*
X186812759Y-95062459D01*
X186844001Y-95219526D01*
X186844001Y-95379676D01*
X186812759Y-95536743D01*
X186751472Y-95684702D01*
X186662502Y-95817856D01*
X186549256Y-95931102D01*
X186416102Y-96020072D01*
X186268143Y-96081359D01*
X186111076Y-96112601D01*
X185950926Y-96112601D01*
X185793859Y-96081359D01*
X185645900Y-96020072D01*
X185512746Y-95931102D01*
X185399500Y-95817856D01*
X185310530Y-95684702D01*
X185249243Y-95536743D01*
X185218001Y-95379676D01*
X185218001Y-95219526D01*
X185249243Y-95062459D01*
X185310530Y-94914500D01*
X185399500Y-94781346D01*
X185512746Y-94668100D01*
X185645900Y-94579130D01*
X185793859Y-94517843D01*
X185950926Y-94486601D01*
X186111076Y-94486601D01*
X186268143Y-94517843D01*
X186268143Y-94517843D01*
G37*
G36*
X165948143Y-94517843D02*
G01*
X166096102Y-94579130D01*
X166229256Y-94668100D01*
X166342502Y-94781346D01*
X166431472Y-94914500D01*
X166492759Y-95062459D01*
X166524001Y-95219526D01*
X166524001Y-95379676D01*
X166492759Y-95536743D01*
X166431472Y-95684702D01*
X166342502Y-95817856D01*
X166229256Y-95931102D01*
X166096102Y-96020072D01*
X165948143Y-96081359D01*
X165791076Y-96112601D01*
X165630926Y-96112601D01*
X165473859Y-96081359D01*
X165325900Y-96020072D01*
X165192746Y-95931102D01*
X165079500Y-95817856D01*
X164990530Y-95684702D01*
X164929243Y-95536743D01*
X164898001Y-95379676D01*
X164898001Y-95219526D01*
X164929243Y-95062459D01*
X164990530Y-94914500D01*
X165079500Y-94781346D01*
X165192746Y-94668100D01*
X165325900Y-94579130D01*
X165473859Y-94517843D01*
X165630926Y-94486601D01*
X165791076Y-94486601D01*
X165948143Y-94517843D01*
X165948143Y-94517843D01*
G37*
G36*
X92417200Y-96024000D02*
G01*
X90615200Y-96024000D01*
X90615200Y-94222000D01*
X92417200Y-94222000D01*
X92417200Y-96024000D01*
X92417200Y-96024000D01*
G37*
G36*
X79404513Y-94003528D02*
G01*
X79553813Y-94033225D01*
X79717785Y-94101145D01*
X79865355Y-94199748D01*
X79990854Y-94325247D01*
X80089457Y-94472817D01*
X80157377Y-94636789D01*
X80192001Y-94810860D01*
X80192001Y-94988342D01*
X80157377Y-95162413D01*
X80089457Y-95326385D01*
X79990854Y-95473955D01*
X79865355Y-95599454D01*
X79717785Y-95698057D01*
X79553813Y-95765977D01*
X79404513Y-95795674D01*
X79379743Y-95800601D01*
X79202259Y-95800601D01*
X79177489Y-95795674D01*
X79028189Y-95765977D01*
X78864217Y-95698057D01*
X78716647Y-95599454D01*
X78591148Y-95473955D01*
X78492545Y-95326385D01*
X78424625Y-95162413D01*
X78390001Y-94988342D01*
X78390001Y-94810860D01*
X78424625Y-94636789D01*
X78492545Y-94472817D01*
X78591148Y-94325247D01*
X78716647Y-94199748D01*
X78864217Y-94101145D01*
X79028189Y-94033225D01*
X79177489Y-94003528D01*
X79202259Y-93998601D01*
X79379743Y-93998601D01*
X79404513Y-94003528D01*
X79404513Y-94003528D01*
G37*
G36*
X165948143Y-91977843D02*
G01*
X166096102Y-92039130D01*
X166229256Y-92128100D01*
X166342502Y-92241346D01*
X166431472Y-92374500D01*
X166492759Y-92522459D01*
X166524001Y-92679526D01*
X166524001Y-92839676D01*
X166492759Y-92996743D01*
X166431472Y-93144702D01*
X166342502Y-93277856D01*
X166229256Y-93391102D01*
X166096102Y-93480072D01*
X165948143Y-93541359D01*
X165791076Y-93572601D01*
X165630926Y-93572601D01*
X165473859Y-93541359D01*
X165325900Y-93480072D01*
X165192746Y-93391102D01*
X165079500Y-93277856D01*
X164990530Y-93144702D01*
X164929243Y-92996743D01*
X164898001Y-92839676D01*
X164898001Y-92679526D01*
X164929243Y-92522459D01*
X164990530Y-92374500D01*
X165079500Y-92241346D01*
X165192746Y-92128100D01*
X165325900Y-92039130D01*
X165473859Y-91977843D01*
X165630926Y-91946601D01*
X165791076Y-91946601D01*
X165948143Y-91977843D01*
X165948143Y-91977843D01*
G37*
G36*
X186268143Y-91977843D02*
G01*
X186416102Y-92039130D01*
X186549256Y-92128100D01*
X186662502Y-92241346D01*
X186751472Y-92374500D01*
X186812759Y-92522459D01*
X186844001Y-92679526D01*
X186844001Y-92839676D01*
X186812759Y-92996743D01*
X186751472Y-93144702D01*
X186662502Y-93277856D01*
X186549256Y-93391102D01*
X186416102Y-93480072D01*
X186268143Y-93541359D01*
X186111076Y-93572601D01*
X185950926Y-93572601D01*
X185793859Y-93541359D01*
X185645900Y-93480072D01*
X185512746Y-93391102D01*
X185399500Y-93277856D01*
X185310530Y-93144702D01*
X185249243Y-92996743D01*
X185218001Y-92839676D01*
X185218001Y-92679526D01*
X185249243Y-92522459D01*
X185310530Y-92374500D01*
X185399500Y-92241346D01*
X185512746Y-92128100D01*
X185645900Y-92039130D01*
X185793859Y-91977843D01*
X185950926Y-91946601D01*
X186111076Y-91946601D01*
X186268143Y-91977843D01*
X186268143Y-91977843D01*
G37*
G36*
X79404513Y-91463528D02*
G01*
X79553813Y-91493225D01*
X79717785Y-91561145D01*
X79865355Y-91659748D01*
X79990854Y-91785247D01*
X80089457Y-91932817D01*
X80157377Y-92096789D01*
X80192001Y-92270860D01*
X80192001Y-92448342D01*
X80157377Y-92622413D01*
X80089457Y-92786385D01*
X79990854Y-92933955D01*
X79865355Y-93059454D01*
X79717785Y-93158057D01*
X79553813Y-93225977D01*
X79404513Y-93255674D01*
X79379743Y-93260601D01*
X79202259Y-93260601D01*
X79177489Y-93255674D01*
X79028189Y-93225977D01*
X78864217Y-93158057D01*
X78716647Y-93059454D01*
X78591148Y-92933955D01*
X78492545Y-92786385D01*
X78424625Y-92622413D01*
X78390001Y-92448342D01*
X78390001Y-92270860D01*
X78424625Y-92096789D01*
X78492545Y-91932817D01*
X78591148Y-91785247D01*
X78716647Y-91659748D01*
X78864217Y-91561145D01*
X79028189Y-91493225D01*
X79177489Y-91463528D01*
X79202259Y-91458601D01*
X79379743Y-91458601D01*
X79404513Y-91463528D01*
X79404513Y-91463528D01*
G37*
G36*
X165948143Y-89437843D02*
G01*
X166096102Y-89499130D01*
X166229256Y-89588100D01*
X166342502Y-89701346D01*
X166431472Y-89834500D01*
X166492759Y-89982459D01*
X166524001Y-90139526D01*
X166524001Y-90299676D01*
X166492759Y-90456743D01*
X166431472Y-90604702D01*
X166342502Y-90737856D01*
X166229256Y-90851102D01*
X166096102Y-90940072D01*
X165948143Y-91001359D01*
X165791076Y-91032601D01*
X165630926Y-91032601D01*
X165473859Y-91001359D01*
X165325900Y-90940072D01*
X165192746Y-90851102D01*
X165079500Y-90737856D01*
X164990530Y-90604702D01*
X164929243Y-90456743D01*
X164898001Y-90299676D01*
X164898001Y-90139526D01*
X164929243Y-89982459D01*
X164990530Y-89834500D01*
X165079500Y-89701346D01*
X165192746Y-89588100D01*
X165325900Y-89499130D01*
X165473859Y-89437843D01*
X165630926Y-89406601D01*
X165791076Y-89406601D01*
X165948143Y-89437843D01*
X165948143Y-89437843D01*
G37*
G36*
X186268143Y-89437843D02*
G01*
X186416102Y-89499130D01*
X186549256Y-89588100D01*
X186662502Y-89701346D01*
X186751472Y-89834500D01*
X186812759Y-89982459D01*
X186844001Y-90139526D01*
X186844001Y-90299676D01*
X186812759Y-90456743D01*
X186751472Y-90604702D01*
X186662502Y-90737856D01*
X186549256Y-90851102D01*
X186416102Y-90940072D01*
X186268143Y-91001359D01*
X186111076Y-91032601D01*
X185950926Y-91032601D01*
X185793859Y-91001359D01*
X185645900Y-90940072D01*
X185512746Y-90851102D01*
X185399500Y-90737856D01*
X185310530Y-90604702D01*
X185249243Y-90456743D01*
X185218001Y-90299676D01*
X185218001Y-90139526D01*
X185249243Y-89982459D01*
X185310530Y-89834500D01*
X185399500Y-89701346D01*
X185512746Y-89588100D01*
X185645900Y-89499130D01*
X185793859Y-89437843D01*
X185950926Y-89406601D01*
X186111076Y-89406601D01*
X186268143Y-89437843D01*
X186268143Y-89437843D01*
G37*
G36*
X160684513Y-88923528D02*
G01*
X160833813Y-88953225D01*
X160997785Y-89021145D01*
X161145355Y-89119748D01*
X161270854Y-89245247D01*
X161369457Y-89392817D01*
X161437377Y-89556789D01*
X161472001Y-89730860D01*
X161472001Y-89908342D01*
X161437377Y-90082413D01*
X161369457Y-90246385D01*
X161270854Y-90393955D01*
X161145355Y-90519454D01*
X160997785Y-90618057D01*
X160833813Y-90685977D01*
X160684513Y-90715674D01*
X160659743Y-90720601D01*
X160482259Y-90720601D01*
X160457489Y-90715674D01*
X160308189Y-90685977D01*
X160144217Y-90618057D01*
X159996647Y-90519454D01*
X159871148Y-90393955D01*
X159772545Y-90246385D01*
X159704625Y-90082413D01*
X159670001Y-89908342D01*
X159670001Y-89730860D01*
X159704625Y-89556789D01*
X159772545Y-89392817D01*
X159871148Y-89245247D01*
X159996647Y-89119748D01*
X160144217Y-89021145D01*
X160308189Y-88953225D01*
X160457489Y-88923528D01*
X160482259Y-88918601D01*
X160659743Y-88918601D01*
X160684513Y-88923528D01*
X160684513Y-88923528D01*
G37*
G36*
X79404513Y-88923528D02*
G01*
X79553813Y-88953225D01*
X79717785Y-89021145D01*
X79865355Y-89119748D01*
X79990854Y-89245247D01*
X80089457Y-89392817D01*
X80157377Y-89556789D01*
X80192001Y-89730860D01*
X80192001Y-89908342D01*
X80157377Y-90082413D01*
X80089457Y-90246385D01*
X79990854Y-90393955D01*
X79865355Y-90519454D01*
X79717785Y-90618057D01*
X79553813Y-90685977D01*
X79404513Y-90715674D01*
X79379743Y-90720601D01*
X79202259Y-90720601D01*
X79177489Y-90715674D01*
X79028189Y-90685977D01*
X78864217Y-90618057D01*
X78716647Y-90519454D01*
X78591148Y-90393955D01*
X78492545Y-90246385D01*
X78424625Y-90082413D01*
X78390001Y-89908342D01*
X78390001Y-89730860D01*
X78424625Y-89556789D01*
X78492545Y-89392817D01*
X78591148Y-89245247D01*
X78716647Y-89119748D01*
X78864217Y-89021145D01*
X79028189Y-88953225D01*
X79177489Y-88923528D01*
X79202259Y-88918601D01*
X79379743Y-88918601D01*
X79404513Y-88923528D01*
X79404513Y-88923528D01*
G37*
G36*
X186268143Y-86897843D02*
G01*
X186416102Y-86959130D01*
X186549256Y-87048100D01*
X186662502Y-87161346D01*
X186751472Y-87294500D01*
X186812759Y-87442459D01*
X186844001Y-87599526D01*
X186844001Y-87759676D01*
X186812759Y-87916743D01*
X186751472Y-88064702D01*
X186662502Y-88197856D01*
X186549256Y-88311102D01*
X186416102Y-88400072D01*
X186268143Y-88461359D01*
X186111076Y-88492601D01*
X185950926Y-88492601D01*
X185793859Y-88461359D01*
X185645900Y-88400072D01*
X185512746Y-88311102D01*
X185399500Y-88197856D01*
X185310530Y-88064702D01*
X185249243Y-87916743D01*
X185218001Y-87759676D01*
X185218001Y-87599526D01*
X185249243Y-87442459D01*
X185310530Y-87294500D01*
X185399500Y-87161346D01*
X185512746Y-87048100D01*
X185645900Y-86959130D01*
X185793859Y-86897843D01*
X185950926Y-86866601D01*
X186111076Y-86866601D01*
X186268143Y-86897843D01*
X186268143Y-86897843D01*
G37*
G36*
X165948143Y-86897843D02*
G01*
X166096102Y-86959130D01*
X166229256Y-87048100D01*
X166342502Y-87161346D01*
X166431472Y-87294500D01*
X166492759Y-87442459D01*
X166524001Y-87599526D01*
X166524001Y-87759676D01*
X166492759Y-87916743D01*
X166431472Y-88064702D01*
X166342502Y-88197856D01*
X166229256Y-88311102D01*
X166096102Y-88400072D01*
X165948143Y-88461359D01*
X165791076Y-88492601D01*
X165630926Y-88492601D01*
X165473859Y-88461359D01*
X165325900Y-88400072D01*
X165192746Y-88311102D01*
X165079500Y-88197856D01*
X164990530Y-88064702D01*
X164929243Y-87916743D01*
X164898001Y-87759676D01*
X164898001Y-87599526D01*
X164929243Y-87442459D01*
X164990530Y-87294500D01*
X165079500Y-87161346D01*
X165192746Y-87048100D01*
X165325900Y-86959130D01*
X165473859Y-86897843D01*
X165630926Y-86866601D01*
X165791076Y-86866601D01*
X165948143Y-86897843D01*
X165948143Y-86897843D01*
G37*
G36*
X160684513Y-86383528D02*
G01*
X160833813Y-86413225D01*
X160997785Y-86481145D01*
X161145355Y-86579748D01*
X161270854Y-86705247D01*
X161369457Y-86852817D01*
X161437377Y-87016789D01*
X161472001Y-87190860D01*
X161472001Y-87368342D01*
X161437377Y-87542413D01*
X161369457Y-87706385D01*
X161270854Y-87853955D01*
X161145355Y-87979454D01*
X160997785Y-88078057D01*
X160833813Y-88145977D01*
X160684513Y-88175674D01*
X160659743Y-88180601D01*
X160482259Y-88180601D01*
X160457489Y-88175674D01*
X160308189Y-88145977D01*
X160144217Y-88078057D01*
X159996647Y-87979454D01*
X159871148Y-87853955D01*
X159772545Y-87706385D01*
X159704625Y-87542413D01*
X159670001Y-87368342D01*
X159670001Y-87190860D01*
X159704625Y-87016789D01*
X159772545Y-86852817D01*
X159871148Y-86705247D01*
X159996647Y-86579748D01*
X160144217Y-86481145D01*
X160308189Y-86413225D01*
X160457489Y-86383528D01*
X160482259Y-86378601D01*
X160659743Y-86378601D01*
X160684513Y-86383528D01*
X160684513Y-86383528D01*
G37*
G36*
X79404513Y-86383528D02*
G01*
X79553813Y-86413225D01*
X79717785Y-86481145D01*
X79865355Y-86579748D01*
X79990854Y-86705247D01*
X80089457Y-86852817D01*
X80157377Y-87016789D01*
X80192001Y-87190860D01*
X80192001Y-87368342D01*
X80157377Y-87542413D01*
X80089457Y-87706385D01*
X79990854Y-87853955D01*
X79865355Y-87979454D01*
X79717785Y-88078057D01*
X79553813Y-88145977D01*
X79404513Y-88175674D01*
X79379743Y-88180601D01*
X79202259Y-88180601D01*
X79177489Y-88175674D01*
X79028189Y-88145977D01*
X78864217Y-88078057D01*
X78716647Y-87979454D01*
X78591148Y-87853955D01*
X78492545Y-87706385D01*
X78424625Y-87542413D01*
X78390001Y-87368342D01*
X78390001Y-87190860D01*
X78424625Y-87016789D01*
X78492545Y-86852817D01*
X78591148Y-86705247D01*
X78716647Y-86579748D01*
X78864217Y-86481145D01*
X79028189Y-86413225D01*
X79177489Y-86383528D01*
X79202259Y-86378601D01*
X79379743Y-86378601D01*
X79404513Y-86383528D01*
X79404513Y-86383528D01*
G37*
G36*
X186268143Y-84357843D02*
G01*
X186416102Y-84419130D01*
X186549256Y-84508100D01*
X186662502Y-84621346D01*
X186751472Y-84754500D01*
X186812759Y-84902459D01*
X186844001Y-85059526D01*
X186844001Y-85219676D01*
X186812759Y-85376743D01*
X186751472Y-85524702D01*
X186662502Y-85657856D01*
X186549256Y-85771102D01*
X186416102Y-85860072D01*
X186268143Y-85921359D01*
X186111076Y-85952601D01*
X185950926Y-85952601D01*
X185793859Y-85921359D01*
X185645900Y-85860072D01*
X185512746Y-85771102D01*
X185399500Y-85657856D01*
X185310530Y-85524702D01*
X185249243Y-85376743D01*
X185218001Y-85219676D01*
X185218001Y-85059526D01*
X185249243Y-84902459D01*
X185310530Y-84754500D01*
X185399500Y-84621346D01*
X185512746Y-84508100D01*
X185645900Y-84419130D01*
X185793859Y-84357843D01*
X185950926Y-84326601D01*
X186111076Y-84326601D01*
X186268143Y-84357843D01*
X186268143Y-84357843D01*
G37*
G36*
X165948143Y-84357843D02*
G01*
X166096102Y-84419130D01*
X166229256Y-84508100D01*
X166342502Y-84621346D01*
X166431472Y-84754500D01*
X166492759Y-84902459D01*
X166524001Y-85059526D01*
X166524001Y-85219676D01*
X166492759Y-85376743D01*
X166431472Y-85524702D01*
X166342502Y-85657856D01*
X166229256Y-85771102D01*
X166096102Y-85860072D01*
X165948143Y-85921359D01*
X165791076Y-85952601D01*
X165630926Y-85952601D01*
X165473859Y-85921359D01*
X165325900Y-85860072D01*
X165192746Y-85771102D01*
X165079500Y-85657856D01*
X164990530Y-85524702D01*
X164929243Y-85376743D01*
X164898001Y-85219676D01*
X164898001Y-85059526D01*
X164929243Y-84902459D01*
X164990530Y-84754500D01*
X165079500Y-84621346D01*
X165192746Y-84508100D01*
X165325900Y-84419130D01*
X165473859Y-84357843D01*
X165630926Y-84326601D01*
X165791076Y-84326601D01*
X165948143Y-84357843D01*
X165948143Y-84357843D01*
G37*
G36*
X160684513Y-83843528D02*
G01*
X160833813Y-83873225D01*
X160997785Y-83941145D01*
X161145355Y-84039748D01*
X161270854Y-84165247D01*
X161369457Y-84312817D01*
X161437377Y-84476789D01*
X161472001Y-84650860D01*
X161472001Y-84828342D01*
X161437377Y-85002413D01*
X161369457Y-85166385D01*
X161270854Y-85313955D01*
X161145355Y-85439454D01*
X160997785Y-85538057D01*
X160833813Y-85605977D01*
X160684513Y-85635674D01*
X160659743Y-85640601D01*
X160482259Y-85640601D01*
X160457489Y-85635674D01*
X160308189Y-85605977D01*
X160144217Y-85538057D01*
X159996647Y-85439454D01*
X159871148Y-85313955D01*
X159772545Y-85166385D01*
X159704625Y-85002413D01*
X159670001Y-84828342D01*
X159670001Y-84650860D01*
X159704625Y-84476789D01*
X159772545Y-84312817D01*
X159871148Y-84165247D01*
X159996647Y-84039748D01*
X160144217Y-83941145D01*
X160308189Y-83873225D01*
X160457489Y-83843528D01*
X160482259Y-83838601D01*
X160659743Y-83838601D01*
X160684513Y-83843528D01*
X160684513Y-83843528D01*
G37*
G36*
X79404513Y-83843528D02*
G01*
X79553813Y-83873225D01*
X79717785Y-83941145D01*
X79865355Y-84039748D01*
X79990854Y-84165247D01*
X80089457Y-84312817D01*
X80157377Y-84476789D01*
X80192001Y-84650860D01*
X80192001Y-84828342D01*
X80157377Y-85002413D01*
X80089457Y-85166385D01*
X79990854Y-85313955D01*
X79865355Y-85439454D01*
X79717785Y-85538057D01*
X79553813Y-85605977D01*
X79404513Y-85635674D01*
X79379743Y-85640601D01*
X79202259Y-85640601D01*
X79177489Y-85635674D01*
X79028189Y-85605977D01*
X78864217Y-85538057D01*
X78716647Y-85439454D01*
X78591148Y-85313955D01*
X78492545Y-85166385D01*
X78424625Y-85002413D01*
X78390001Y-84828342D01*
X78390001Y-84650860D01*
X78424625Y-84476789D01*
X78492545Y-84312817D01*
X78591148Y-84165247D01*
X78716647Y-84039748D01*
X78864217Y-83941145D01*
X79028189Y-83873225D01*
X79177489Y-83843528D01*
X79202259Y-83838601D01*
X79379743Y-83838601D01*
X79404513Y-83843528D01*
X79404513Y-83843528D01*
G37*
G36*
X186268143Y-81817843D02*
G01*
X186416102Y-81879130D01*
X186549256Y-81968100D01*
X186662502Y-82081346D01*
X186751472Y-82214500D01*
X186812759Y-82362459D01*
X186844001Y-82519526D01*
X186844001Y-82679676D01*
X186812759Y-82836743D01*
X186751472Y-82984702D01*
X186662502Y-83117856D01*
X186549256Y-83231102D01*
X186416102Y-83320072D01*
X186268143Y-83381359D01*
X186111076Y-83412601D01*
X185950926Y-83412601D01*
X185793859Y-83381359D01*
X185645900Y-83320072D01*
X185512746Y-83231102D01*
X185399500Y-83117856D01*
X185310530Y-82984702D01*
X185249243Y-82836743D01*
X185218001Y-82679676D01*
X185218001Y-82519526D01*
X185249243Y-82362459D01*
X185310530Y-82214500D01*
X185399500Y-82081346D01*
X185512746Y-81968100D01*
X185645900Y-81879130D01*
X185793859Y-81817843D01*
X185950926Y-81786601D01*
X186111076Y-81786601D01*
X186268143Y-81817843D01*
X186268143Y-81817843D01*
G37*
G36*
X165948143Y-81817843D02*
G01*
X166096102Y-81879130D01*
X166229256Y-81968100D01*
X166342502Y-82081346D01*
X166431472Y-82214500D01*
X166492759Y-82362459D01*
X166524001Y-82519526D01*
X166524001Y-82679676D01*
X166492759Y-82836743D01*
X166431472Y-82984702D01*
X166342502Y-83117856D01*
X166229256Y-83231102D01*
X166096102Y-83320072D01*
X165948143Y-83381359D01*
X165791076Y-83412601D01*
X165630926Y-83412601D01*
X165473859Y-83381359D01*
X165325900Y-83320072D01*
X165192746Y-83231102D01*
X165079500Y-83117856D01*
X164990530Y-82984702D01*
X164929243Y-82836743D01*
X164898001Y-82679676D01*
X164898001Y-82519526D01*
X164929243Y-82362459D01*
X164990530Y-82214500D01*
X165079500Y-82081346D01*
X165192746Y-81968100D01*
X165325900Y-81879130D01*
X165473859Y-81817843D01*
X165630926Y-81786601D01*
X165791076Y-81786601D01*
X165948143Y-81817843D01*
X165948143Y-81817843D01*
G37*
G36*
X79404513Y-81303528D02*
G01*
X79553813Y-81333225D01*
X79717785Y-81401145D01*
X79865355Y-81499748D01*
X79990854Y-81625247D01*
X80089457Y-81772817D01*
X80157377Y-81936789D01*
X80192001Y-82110860D01*
X80192001Y-82288342D01*
X80157377Y-82462413D01*
X80089457Y-82626385D01*
X79990854Y-82773955D01*
X79865355Y-82899454D01*
X79717785Y-82998057D01*
X79553813Y-83065977D01*
X79404513Y-83095674D01*
X79379743Y-83100601D01*
X79202259Y-83100601D01*
X79177489Y-83095674D01*
X79028189Y-83065977D01*
X78864217Y-82998057D01*
X78716647Y-82899454D01*
X78591148Y-82773955D01*
X78492545Y-82626385D01*
X78424625Y-82462413D01*
X78390001Y-82288342D01*
X78390001Y-82110860D01*
X78424625Y-81936789D01*
X78492545Y-81772817D01*
X78591148Y-81625247D01*
X78716647Y-81499748D01*
X78864217Y-81401145D01*
X79028189Y-81333225D01*
X79177489Y-81303528D01*
X79202259Y-81298601D01*
X79379743Y-81298601D01*
X79404513Y-81303528D01*
X79404513Y-81303528D01*
G37*
G36*
X160684513Y-81303528D02*
G01*
X160833813Y-81333225D01*
X160997785Y-81401145D01*
X161145355Y-81499748D01*
X161270854Y-81625247D01*
X161369457Y-81772817D01*
X161437377Y-81936789D01*
X161472001Y-82110860D01*
X161472001Y-82288342D01*
X161437377Y-82462413D01*
X161369457Y-82626385D01*
X161270854Y-82773955D01*
X161145355Y-82899454D01*
X160997785Y-82998057D01*
X160833813Y-83065977D01*
X160684513Y-83095674D01*
X160659743Y-83100601D01*
X160482259Y-83100601D01*
X160457489Y-83095674D01*
X160308189Y-83065977D01*
X160144217Y-82998057D01*
X159996647Y-82899454D01*
X159871148Y-82773955D01*
X159772545Y-82626385D01*
X159704625Y-82462413D01*
X159670001Y-82288342D01*
X159670001Y-82110860D01*
X159704625Y-81936789D01*
X159772545Y-81772817D01*
X159871148Y-81625247D01*
X159996647Y-81499748D01*
X160144217Y-81401145D01*
X160308189Y-81333225D01*
X160457489Y-81303528D01*
X160482259Y-81298601D01*
X160659743Y-81298601D01*
X160684513Y-81303528D01*
X160684513Y-81303528D01*
G37*
G36*
X186268143Y-79277843D02*
G01*
X186416102Y-79339130D01*
X186549256Y-79428100D01*
X186662502Y-79541346D01*
X186751472Y-79674500D01*
X186812759Y-79822459D01*
X186844001Y-79979526D01*
X186844001Y-80139676D01*
X186812759Y-80296743D01*
X186751472Y-80444702D01*
X186662502Y-80577856D01*
X186549256Y-80691102D01*
X186416102Y-80780072D01*
X186268143Y-80841359D01*
X186111076Y-80872601D01*
X185950926Y-80872601D01*
X185793859Y-80841359D01*
X185645900Y-80780072D01*
X185512746Y-80691102D01*
X185399500Y-80577856D01*
X185310530Y-80444702D01*
X185249243Y-80296743D01*
X185218001Y-80139676D01*
X185218001Y-79979526D01*
X185249243Y-79822459D01*
X185310530Y-79674500D01*
X185399500Y-79541346D01*
X185512746Y-79428100D01*
X185645900Y-79339130D01*
X185793859Y-79277843D01*
X185950926Y-79246601D01*
X186111076Y-79246601D01*
X186268143Y-79277843D01*
X186268143Y-79277843D01*
G37*
G36*
X165948143Y-79277843D02*
G01*
X166096102Y-79339130D01*
X166229256Y-79428100D01*
X166342502Y-79541346D01*
X166431472Y-79674500D01*
X166492759Y-79822459D01*
X166524001Y-79979526D01*
X166524001Y-80139676D01*
X166492759Y-80296743D01*
X166431472Y-80444702D01*
X166342502Y-80577856D01*
X166229256Y-80691102D01*
X166096102Y-80780072D01*
X165948143Y-80841359D01*
X165791076Y-80872601D01*
X165630926Y-80872601D01*
X165473859Y-80841359D01*
X165325900Y-80780072D01*
X165192746Y-80691102D01*
X165079500Y-80577856D01*
X164990530Y-80444702D01*
X164929243Y-80296743D01*
X164898001Y-80139676D01*
X164898001Y-79979526D01*
X164929243Y-79822459D01*
X164990530Y-79674500D01*
X165079500Y-79541346D01*
X165192746Y-79428100D01*
X165325900Y-79339130D01*
X165473859Y-79277843D01*
X165630926Y-79246601D01*
X165791076Y-79246601D01*
X165948143Y-79277843D01*
X165948143Y-79277843D01*
G37*
G36*
X79404513Y-78763528D02*
G01*
X79553813Y-78793225D01*
X79717785Y-78861145D01*
X79865355Y-78959748D01*
X79990854Y-79085247D01*
X80089457Y-79232817D01*
X80157377Y-79396789D01*
X80192001Y-79570860D01*
X80192001Y-79748342D01*
X80157377Y-79922413D01*
X80089457Y-80086385D01*
X79990854Y-80233955D01*
X79865355Y-80359454D01*
X79717785Y-80458057D01*
X79553813Y-80525977D01*
X79404513Y-80555674D01*
X79379743Y-80560601D01*
X79202259Y-80560601D01*
X79177489Y-80555674D01*
X79028189Y-80525977D01*
X78864217Y-80458057D01*
X78716647Y-80359454D01*
X78591148Y-80233955D01*
X78492545Y-80086385D01*
X78424625Y-79922413D01*
X78390001Y-79748342D01*
X78390001Y-79570860D01*
X78424625Y-79396789D01*
X78492545Y-79232817D01*
X78591148Y-79085247D01*
X78716647Y-78959748D01*
X78864217Y-78861145D01*
X79028189Y-78793225D01*
X79177489Y-78763528D01*
X79202259Y-78758601D01*
X79379743Y-78758601D01*
X79404513Y-78763528D01*
X79404513Y-78763528D01*
G37*
G36*
X186268143Y-76737843D02*
G01*
X186416102Y-76799130D01*
X186549256Y-76888100D01*
X186662502Y-77001346D01*
X186751472Y-77134500D01*
X186812759Y-77282459D01*
X186844001Y-77439526D01*
X186844001Y-77599676D01*
X186812759Y-77756743D01*
X186751472Y-77904702D01*
X186662502Y-78037856D01*
X186549256Y-78151102D01*
X186416102Y-78240072D01*
X186268143Y-78301359D01*
X186111076Y-78332601D01*
X185950926Y-78332601D01*
X185793859Y-78301359D01*
X185645900Y-78240072D01*
X185512746Y-78151102D01*
X185399500Y-78037856D01*
X185310530Y-77904702D01*
X185249243Y-77756743D01*
X185218001Y-77599676D01*
X185218001Y-77439526D01*
X185249243Y-77282459D01*
X185310530Y-77134500D01*
X185399500Y-77001346D01*
X185512746Y-76888100D01*
X185645900Y-76799130D01*
X185793859Y-76737843D01*
X185950926Y-76706601D01*
X186111076Y-76706601D01*
X186268143Y-76737843D01*
X186268143Y-76737843D01*
G37*
G36*
X165948143Y-76737843D02*
G01*
X166096102Y-76799130D01*
X166229256Y-76888100D01*
X166342502Y-77001346D01*
X166431472Y-77134500D01*
X166492759Y-77282459D01*
X166524001Y-77439526D01*
X166524001Y-77599676D01*
X166492759Y-77756743D01*
X166431472Y-77904702D01*
X166342502Y-78037856D01*
X166229256Y-78151102D01*
X166096102Y-78240072D01*
X165948143Y-78301359D01*
X165791076Y-78332601D01*
X165630926Y-78332601D01*
X165473859Y-78301359D01*
X165325900Y-78240072D01*
X165192746Y-78151102D01*
X165079500Y-78037856D01*
X164990530Y-77904702D01*
X164929243Y-77756743D01*
X164898001Y-77599676D01*
X164898001Y-77439526D01*
X164929243Y-77282459D01*
X164990530Y-77134500D01*
X165079500Y-77001346D01*
X165192746Y-76888100D01*
X165325900Y-76799130D01*
X165473859Y-76737843D01*
X165630926Y-76706601D01*
X165791076Y-76706601D01*
X165948143Y-76737843D01*
X165948143Y-76737843D01*
G37*
G36*
X79404513Y-76223528D02*
G01*
X79553813Y-76253225D01*
X79717785Y-76321145D01*
X79865355Y-76419748D01*
X79990854Y-76545247D01*
X80089457Y-76692817D01*
X80157377Y-76856789D01*
X80192001Y-77030860D01*
X80192001Y-77208342D01*
X80157377Y-77382413D01*
X80089457Y-77546385D01*
X79990854Y-77693955D01*
X79865355Y-77819454D01*
X79717785Y-77918057D01*
X79553813Y-77985977D01*
X79404513Y-78015674D01*
X79379743Y-78020601D01*
X79202259Y-78020601D01*
X79177489Y-78015674D01*
X79028189Y-77985977D01*
X78864217Y-77918057D01*
X78716647Y-77819454D01*
X78591148Y-77693955D01*
X78492545Y-77546385D01*
X78424625Y-77382413D01*
X78390001Y-77208342D01*
X78390001Y-77030860D01*
X78424625Y-76856789D01*
X78492545Y-76692817D01*
X78591148Y-76545247D01*
X78716647Y-76419748D01*
X78864217Y-76321145D01*
X79028189Y-76253225D01*
X79177489Y-76223528D01*
X79202259Y-76218601D01*
X79379743Y-76218601D01*
X79404513Y-76223528D01*
X79404513Y-76223528D01*
G37*
G36*
X165948143Y-74197843D02*
G01*
X166096102Y-74259130D01*
X166229256Y-74348100D01*
X166342502Y-74461346D01*
X166431472Y-74594500D01*
X166492759Y-74742459D01*
X166524001Y-74899526D01*
X166524001Y-75059676D01*
X166492759Y-75216743D01*
X166431472Y-75364702D01*
X166342502Y-75497856D01*
X166229256Y-75611102D01*
X166096102Y-75700072D01*
X165948143Y-75761359D01*
X165791076Y-75792601D01*
X165630926Y-75792601D01*
X165473859Y-75761359D01*
X165325900Y-75700072D01*
X165192746Y-75611102D01*
X165079500Y-75497856D01*
X164990530Y-75364702D01*
X164929243Y-75216743D01*
X164898001Y-75059676D01*
X164898001Y-74899526D01*
X164929243Y-74742459D01*
X164990530Y-74594500D01*
X165079500Y-74461346D01*
X165192746Y-74348100D01*
X165325900Y-74259130D01*
X165473859Y-74197843D01*
X165630926Y-74166601D01*
X165791076Y-74166601D01*
X165948143Y-74197843D01*
X165948143Y-74197843D01*
G37*
G36*
X186268143Y-74197843D02*
G01*
X186416102Y-74259130D01*
X186549256Y-74348100D01*
X186662502Y-74461346D01*
X186751472Y-74594500D01*
X186812759Y-74742459D01*
X186844001Y-74899526D01*
X186844001Y-75059676D01*
X186812759Y-75216743D01*
X186751472Y-75364702D01*
X186662502Y-75497856D01*
X186549256Y-75611102D01*
X186416102Y-75700072D01*
X186268143Y-75761359D01*
X186111076Y-75792601D01*
X185950926Y-75792601D01*
X185793859Y-75761359D01*
X185645900Y-75700072D01*
X185512746Y-75611102D01*
X185399500Y-75497856D01*
X185310530Y-75364702D01*
X185249243Y-75216743D01*
X185218001Y-75059676D01*
X185218001Y-74899526D01*
X185249243Y-74742459D01*
X185310530Y-74594500D01*
X185399500Y-74461346D01*
X185512746Y-74348100D01*
X185645900Y-74259130D01*
X185793859Y-74197843D01*
X185950926Y-74166601D01*
X186111076Y-74166601D01*
X186268143Y-74197843D01*
X186268143Y-74197843D01*
G37*
G36*
X79404513Y-73683528D02*
G01*
X79553813Y-73713225D01*
X79717785Y-73781145D01*
X79865355Y-73879748D01*
X79990854Y-74005247D01*
X80089457Y-74152817D01*
X80157377Y-74316789D01*
X80192001Y-74490860D01*
X80192001Y-74668342D01*
X80157377Y-74842413D01*
X80089457Y-75006385D01*
X79990854Y-75153955D01*
X79865355Y-75279454D01*
X79717785Y-75378057D01*
X79553813Y-75445977D01*
X79404513Y-75475674D01*
X79379743Y-75480601D01*
X79202259Y-75480601D01*
X79177489Y-75475674D01*
X79028189Y-75445977D01*
X78864217Y-75378057D01*
X78716647Y-75279454D01*
X78591148Y-75153955D01*
X78492545Y-75006385D01*
X78424625Y-74842413D01*
X78390001Y-74668342D01*
X78390001Y-74490860D01*
X78424625Y-74316789D01*
X78492545Y-74152817D01*
X78591148Y-74005247D01*
X78716647Y-73879748D01*
X78864217Y-73781145D01*
X79028189Y-73713225D01*
X79177489Y-73683528D01*
X79202259Y-73678601D01*
X79379743Y-73678601D01*
X79404513Y-73683528D01*
X79404513Y-73683528D01*
G37*
G36*
X186268143Y-71657843D02*
G01*
X186416102Y-71719130D01*
X186549256Y-71808100D01*
X186662502Y-71921346D01*
X186751472Y-72054500D01*
X186812759Y-72202459D01*
X186844001Y-72359526D01*
X186844001Y-72519676D01*
X186812759Y-72676743D01*
X186751472Y-72824702D01*
X186662502Y-72957856D01*
X186549256Y-73071102D01*
X186416102Y-73160072D01*
X186268143Y-73221359D01*
X186111076Y-73252601D01*
X185950926Y-73252601D01*
X185793859Y-73221359D01*
X185645900Y-73160072D01*
X185512746Y-73071102D01*
X185399500Y-72957856D01*
X185310530Y-72824702D01*
X185249243Y-72676743D01*
X185218001Y-72519676D01*
X185218001Y-72359526D01*
X185249243Y-72202459D01*
X185310530Y-72054500D01*
X185399500Y-71921346D01*
X185512746Y-71808100D01*
X185645900Y-71719130D01*
X185793859Y-71657843D01*
X185950926Y-71626601D01*
X186111076Y-71626601D01*
X186268143Y-71657843D01*
X186268143Y-71657843D01*
G37*
G36*
X165948143Y-71657843D02*
G01*
X166096102Y-71719130D01*
X166229256Y-71808100D01*
X166342502Y-71921346D01*
X166431472Y-72054500D01*
X166492759Y-72202459D01*
X166524001Y-72359526D01*
X166524001Y-72519676D01*
X166492759Y-72676743D01*
X166431472Y-72824702D01*
X166342502Y-72957856D01*
X166229256Y-73071102D01*
X166096102Y-73160072D01*
X165948143Y-73221359D01*
X165791076Y-73252601D01*
X165630926Y-73252601D01*
X165473859Y-73221359D01*
X165325900Y-73160072D01*
X165192746Y-73071102D01*
X165079500Y-72957856D01*
X164990530Y-72824702D01*
X164929243Y-72676743D01*
X164898001Y-72519676D01*
X164898001Y-72359526D01*
X164929243Y-72202459D01*
X164990530Y-72054500D01*
X165079500Y-71921346D01*
X165192746Y-71808100D01*
X165325900Y-71719130D01*
X165473859Y-71657843D01*
X165630926Y-71626601D01*
X165791076Y-71626601D01*
X165948143Y-71657843D01*
X165948143Y-71657843D01*
G37*
G36*
X79404513Y-71143528D02*
G01*
X79553813Y-71173225D01*
X79717785Y-71241145D01*
X79865355Y-71339748D01*
X79990854Y-71465247D01*
X80089457Y-71612817D01*
X80157377Y-71776789D01*
X80192001Y-71950860D01*
X80192001Y-72128342D01*
X80157377Y-72302413D01*
X80089457Y-72466385D01*
X79990854Y-72613955D01*
X79865355Y-72739454D01*
X79717785Y-72838057D01*
X79553813Y-72905977D01*
X79404513Y-72935674D01*
X79379743Y-72940601D01*
X79202259Y-72940601D01*
X79177489Y-72935674D01*
X79028189Y-72905977D01*
X78864217Y-72838057D01*
X78716647Y-72739454D01*
X78591148Y-72613955D01*
X78492545Y-72466385D01*
X78424625Y-72302413D01*
X78390001Y-72128342D01*
X78390001Y-71950860D01*
X78424625Y-71776789D01*
X78492545Y-71612817D01*
X78591148Y-71465247D01*
X78716647Y-71339748D01*
X78864217Y-71241145D01*
X79028189Y-71173225D01*
X79177489Y-71143528D01*
X79202259Y-71138601D01*
X79379743Y-71138601D01*
X79404513Y-71143528D01*
X79404513Y-71143528D01*
G37*
G36*
X165948143Y-69117843D02*
G01*
X166096102Y-69179130D01*
X166229256Y-69268100D01*
X166342502Y-69381346D01*
X166431472Y-69514500D01*
X166492759Y-69662459D01*
X166524001Y-69819526D01*
X166524001Y-69979676D01*
X166492759Y-70136743D01*
X166431472Y-70284702D01*
X166342502Y-70417856D01*
X166229256Y-70531102D01*
X166096102Y-70620072D01*
X165948143Y-70681359D01*
X165791076Y-70712601D01*
X165630926Y-70712601D01*
X165473859Y-70681359D01*
X165325900Y-70620072D01*
X165192746Y-70531102D01*
X165079500Y-70417856D01*
X164990530Y-70284702D01*
X164929243Y-70136743D01*
X164898001Y-69979676D01*
X164898001Y-69819526D01*
X164929243Y-69662459D01*
X164990530Y-69514500D01*
X165079500Y-69381346D01*
X165192746Y-69268100D01*
X165325900Y-69179130D01*
X165473859Y-69117843D01*
X165630926Y-69086601D01*
X165791076Y-69086601D01*
X165948143Y-69117843D01*
X165948143Y-69117843D01*
G37*
G36*
X186268143Y-69117843D02*
G01*
X186416102Y-69179130D01*
X186549256Y-69268100D01*
X186662502Y-69381346D01*
X186751472Y-69514500D01*
X186812759Y-69662459D01*
X186844001Y-69819526D01*
X186844001Y-69979676D01*
X186812759Y-70136743D01*
X186751472Y-70284702D01*
X186662502Y-70417856D01*
X186549256Y-70531102D01*
X186416102Y-70620072D01*
X186268143Y-70681359D01*
X186111076Y-70712601D01*
X185950926Y-70712601D01*
X185793859Y-70681359D01*
X185645900Y-70620072D01*
X185512746Y-70531102D01*
X185399500Y-70417856D01*
X185310530Y-70284702D01*
X185249243Y-70136743D01*
X185218001Y-69979676D01*
X185218001Y-69819526D01*
X185249243Y-69662459D01*
X185310530Y-69514500D01*
X185399500Y-69381346D01*
X185512746Y-69268100D01*
X185645900Y-69179130D01*
X185793859Y-69117843D01*
X185950926Y-69086601D01*
X186111076Y-69086601D01*
X186268143Y-69117843D01*
X186268143Y-69117843D01*
G37*
G36*
X79404513Y-68603528D02*
G01*
X79553813Y-68633225D01*
X79717785Y-68701145D01*
X79865355Y-68799748D01*
X79990854Y-68925247D01*
X80089457Y-69072817D01*
X80157377Y-69236789D01*
X80192001Y-69410860D01*
X80192001Y-69588342D01*
X80157377Y-69762413D01*
X80089457Y-69926385D01*
X79990854Y-70073955D01*
X79865355Y-70199454D01*
X79717785Y-70298057D01*
X79553813Y-70365977D01*
X79404513Y-70395674D01*
X79379743Y-70400601D01*
X79202259Y-70400601D01*
X79177489Y-70395674D01*
X79028189Y-70365977D01*
X78864217Y-70298057D01*
X78716647Y-70199454D01*
X78591148Y-70073955D01*
X78492545Y-69926385D01*
X78424625Y-69762413D01*
X78390001Y-69588342D01*
X78390001Y-69410860D01*
X78424625Y-69236789D01*
X78492545Y-69072817D01*
X78591148Y-68925247D01*
X78716647Y-68799748D01*
X78864217Y-68701145D01*
X79028189Y-68633225D01*
X79177489Y-68603528D01*
X79202259Y-68598601D01*
X79379743Y-68598601D01*
X79404513Y-68603528D01*
X79404513Y-68603528D01*
G37*
G36*
X186268143Y-66577843D02*
G01*
X186416102Y-66639130D01*
X186549256Y-66728100D01*
X186662502Y-66841346D01*
X186751472Y-66974500D01*
X186812759Y-67122459D01*
X186844001Y-67279526D01*
X186844001Y-67439676D01*
X186812759Y-67596743D01*
X186751472Y-67744702D01*
X186662502Y-67877856D01*
X186549256Y-67991102D01*
X186416102Y-68080072D01*
X186268143Y-68141359D01*
X186111076Y-68172601D01*
X185950926Y-68172601D01*
X185793859Y-68141359D01*
X185645900Y-68080072D01*
X185512746Y-67991102D01*
X185399500Y-67877856D01*
X185310530Y-67744702D01*
X185249243Y-67596743D01*
X185218001Y-67439676D01*
X185218001Y-67279526D01*
X185249243Y-67122459D01*
X185310530Y-66974500D01*
X185399500Y-66841346D01*
X185512746Y-66728100D01*
X185645900Y-66639130D01*
X185793859Y-66577843D01*
X185950926Y-66546601D01*
X186111076Y-66546601D01*
X186268143Y-66577843D01*
X186268143Y-66577843D01*
G37*
G36*
X165948143Y-66577843D02*
G01*
X166096102Y-66639130D01*
X166229256Y-66728100D01*
X166342502Y-66841346D01*
X166431472Y-66974500D01*
X166492759Y-67122459D01*
X166524001Y-67279526D01*
X166524001Y-67439676D01*
X166492759Y-67596743D01*
X166431472Y-67744702D01*
X166342502Y-67877856D01*
X166229256Y-67991102D01*
X166096102Y-68080072D01*
X165948143Y-68141359D01*
X165791076Y-68172601D01*
X165630926Y-68172601D01*
X165473859Y-68141359D01*
X165325900Y-68080072D01*
X165192746Y-67991102D01*
X165079500Y-67877856D01*
X164990530Y-67744702D01*
X164929243Y-67596743D01*
X164898001Y-67439676D01*
X164898001Y-67279526D01*
X164929243Y-67122459D01*
X164990530Y-66974500D01*
X165079500Y-66841346D01*
X165192746Y-66728100D01*
X165325900Y-66639130D01*
X165473859Y-66577843D01*
X165630926Y-66546601D01*
X165791076Y-66546601D01*
X165948143Y-66577843D01*
X165948143Y-66577843D01*
G37*
G36*
X161035099Y-61556634D02*
G01*
X161499351Y-61748933D01*
X161499353Y-61748934D01*
X161917169Y-62028110D01*
X162272492Y-62383433D01*
X162551668Y-62801249D01*
X162551669Y-62801251D01*
X162743968Y-63265503D01*
X162842001Y-63758348D01*
X162842001Y-64260854D01*
X162743968Y-64753699D01*
X162551669Y-65217951D01*
X162551668Y-65217953D01*
X162272492Y-65635769D01*
X161917169Y-65991092D01*
X161499353Y-66270268D01*
X161499352Y-66270269D01*
X161499351Y-66270269D01*
X161035099Y-66462568D01*
X160542254Y-66560601D01*
X160039748Y-66560601D01*
X159546903Y-66462568D01*
X159082651Y-66270269D01*
X159082650Y-66270269D01*
X159082649Y-66270268D01*
X158664833Y-65991092D01*
X158309510Y-65635769D01*
X158030334Y-65217953D01*
X158030333Y-65217951D01*
X157838034Y-64753699D01*
X157740001Y-64260854D01*
X157740001Y-63758348D01*
X157838034Y-63265503D01*
X158030333Y-62801251D01*
X158030334Y-62801249D01*
X158309510Y-62383433D01*
X158664833Y-62028110D01*
X159082649Y-61748934D01*
X159082651Y-61748933D01*
X159546903Y-61556634D01*
X160039748Y-61458601D01*
X160542254Y-61458601D01*
X161035099Y-61556634D01*
X161035099Y-61556634D01*
G37*
G36*
X84955099Y-61556634D02*
G01*
X85419351Y-61748933D01*
X85419353Y-61748934D01*
X85837169Y-62028110D01*
X86192492Y-62383433D01*
X86471668Y-62801249D01*
X86471669Y-62801251D01*
X86663968Y-63265503D01*
X86762001Y-63758348D01*
X86762001Y-64260854D01*
X86663968Y-64753699D01*
X86471669Y-65217951D01*
X86471668Y-65217953D01*
X86192492Y-65635769D01*
X85837169Y-65991092D01*
X85419353Y-66270268D01*
X85419352Y-66270269D01*
X85419351Y-66270269D01*
X84955099Y-66462568D01*
X84462254Y-66560601D01*
X83959748Y-66560601D01*
X83466903Y-66462568D01*
X83002651Y-66270269D01*
X83002650Y-66270269D01*
X83002649Y-66270268D01*
X82584833Y-65991092D01*
X82229510Y-65635769D01*
X81950334Y-65217953D01*
X81950333Y-65217951D01*
X81758034Y-64753699D01*
X81660001Y-64260854D01*
X81660001Y-63758348D01*
X81758034Y-63265503D01*
X81950333Y-62801251D01*
X81950334Y-62801249D01*
X82229510Y-62383433D01*
X82584833Y-62028110D01*
X83002649Y-61748934D01*
X83002651Y-61748933D01*
X83466903Y-61556634D01*
X83959748Y-61458601D01*
X84462254Y-61458601D01*
X84955099Y-61556634D01*
X84955099Y-61556634D01*
G37*
M02*
